<?xml version="1.0" encoding="UTF-8" standalone="no"?><svg xmlns="http://www.w3.org/2000/svg" xmlns:xlink="http://www.w3.org/1999/xlink" contentScriptType="application/ecmascript" contentStyleType="text/css" height="335px" preserveAspectRatio="none" style="width:330px;height:335px;" version="1.1" viewBox="0 0 330 335" width="330px" zoomAndPan="magnify"><defs><filter height="300%" id="fu9rbfd3fom64" width="300%" x="-1" y="-1"><feGaussianBlur result="blurOut" stdDeviation="2.0"/><feColorMatrix in="blurOut" result="blurOut2" type="matrix" values="0 0 0 0 0 0 0 0 0 0 0 0 0 0 0 0 0 0 .4 0"/><feOffset dx="4.0" dy="4.0" in="blurOut2" result="blurOut3"/><feBlend in="SourceGraphic" in2="blurOut3" mode="normal"/></filter></defs><g><!--cluster MyBackup--><rect fill="#FFFFFF" filter="url(#fu9rbfd3fom64)" height="299" style="stroke: #000000; stroke-width: 2.0;" width="199" x="120" y="24"/><text fill="#000000" font-family="sans-serif" font-size="14" font-weight="bold" lengthAdjust="spacingAndGlyphs" textLength="72" x="183.5" y="42.8643">MyBackup</text><ellipse cx="219.3376" cy="81.0675" fill="#FEFECE" filter="url(#fu9rbfd3fom64)" rx="83.3376" ry="19.0675" style="stroke: #A80036; stroke-width: 1.5;"/><text fill="#000000" font-family="sans-serif" font-size="14" lengthAdjust="spacingAndGlyphs" textLength="126" x="156.3376" y="87.5377">設定處理目標與方式</text><ellipse cx="219.397" cy="152.1" fill="#FEFECE" filter="url(#fu9rbfd3fom64)" rx="62.397" ry="17.1" style="stroke: #A80036; stroke-width: 1.5;"/><text fill="#000000" font-family="sans-serif" font-size="14" lengthAdjust="spacingAndGlyphs" textLength="84" x="177.397" y="158.5702">設定處理時程</text><ellipse cx="219.397" cy="221.1" fill="#FEFECE" filter="url(#fu9rbfd3fom64)" rx="62.397" ry="17.1" style="stroke: #A80036; stroke-width: 1.5;"/><text fill="#000000" font-family="sans-serif" font-size="14" lengthAdjust="spacingAndGlyphs" textLength="84" x="177.397" y="227.5702">執行簡單備份</text><ellipse cx="219.397" cy="290.1" fill="#FEFECE" filter="url(#fu9rbfd3fom64)" rx="62.397" ry="17.1" style="stroke: #A80036; stroke-width: 1.5;"/><text fill="#000000" font-family="sans-serif" font-size="14" lengthAdjust="spacingAndGlyphs" textLength="84" x="177.397" y="296.5702">執行排程備份</text><!--entity normal--><ellipse cx="41" cy="118.5" fill="#FEFECE" filter="url(#fu9rbfd3fom64)" rx="8" ry="8" style="stroke: #A80036; stroke-width: 2.0;"/><path d="M41,126.5 L41,153.5 M28,134.5 L54,134.5 M41,153.5 L28,168.5 M41,153.5 L54,168.5 " fill="#FEFECE" filter="url(#fu9rbfd3fom64)" style="stroke: #A80036; stroke-width: 2.0;"/><text fill="#000000" font-family="sans-serif" font-size="14" lengthAdjust="spacingAndGlyphs" textLength="70" x="6" y="192.3643">一般使用者</text><!--entity computer--><ellipse cx="41" cy="248.5" fill="#FEFECE" filter="url(#fu9rbfd3fom64)" rx="8" ry="8" style="stroke: #A80036; stroke-width: 2.0;"/><path d="M41,256.5 L41,283.5 M28,264.5 L54,264.5 M41,283.5 L28,298.5 M41,283.5 L54,298.5 " fill="#FEFECE" filter="url(#fu9rbfd3fom64)" style="stroke: #A80036; stroke-width: 2.0;"/><text fill="#000000" font-family="sans-serif" font-size="14" lengthAdjust="spacingAndGlyphs" textLength="70" x="6" y="322.3643">電腦計時器</text><!--link normal to 設定處理目標與方式--><path d="M76.0975,133.773 C87.3736,128.065 100.0851,121.965 112,117 C130.286,109.38 150.814,102.144 168.931,96.184 " fill="none" id="normal-設定處理目標與方式" style="stroke: #A80036; stroke-width: 1.0;"/><!--link normal to 設定處理時程--><path d="M76.031,152 C98.8705,152 129.621,152 156.707,152 " fill="none" id="normal-設定處理時程" style="stroke: #A80036; stroke-width: 1.0;"/><!--link normal to 執行簡單備份--><path d="M76.0481,170.347 C87.3212,176.063 100.0435,182.136 112,187 C132.495,195.337 155.856,202.991 175.466,208.917 " fill="none" id="normal-執行簡單備份" style="stroke: #A80036; stroke-width: 1.0;"/><!--link computer to 執行簡單備份--><path d="M76.0854,269.0432 C87.4723,264.794 100.2529,260.1102 112,256 C133.769,248.3832 158.204,240.3186 178.173,233.853 " fill="none" id="computer-執行簡單備份" style="stroke: #A80036; stroke-width: 1.0;"/><!--link computer to 執行排程備份--><path d="M76.031,283.5425 C99.1711,284.5913 130.431,286.0082 157.774,287.2476 " fill="none" id="computer-執行排程備份" style="stroke: #A80036; stroke-width: 1.0;"/><!--
@startuml MyBackupService
left to right direction

actor normal as "一般使用者"
actor computer as "電腦計時器"

rectangle MyBackup {
    normal - - (設定處理目標與方式)
    normal - - (設定處理時程)
    normal - - (執行簡單備份)
    computer - - (執行簡單備份)
    computer - - (執行排程備份)
}

@enduml

PlantUML version 1.2017.15(Tue Jul 04 00:45:34 CST 2017)
(GPL source distribution)
Java Runtime: Java(TM) SE Runtime Environment
JVM: Java HotSpot(TM) 64-Bit Server VM
Java Version: 9.0.1+11
Operating System: Windows 10
OS Version: 10.0
Default Encoding: MS950
Language: zh
Country: TW
--></g></svg>