<?xml version="1.0" encoding="UTF-8" standalone="no"?><svg xmlns="http://www.w3.org/2000/svg" xmlns:xlink="http://www.w3.org/1999/xlink" contentScriptType="application/ecmascript" contentStyleType="text/css" height="395px" preserveAspectRatio="none" style="width:548px;height:395px;" version="1.1" viewBox="0 0 548 395" width="548px" zoomAndPan="magnify"><defs><filter height="300%" id="f1d7j1u46ia161" width="300%" x="-1" y="-1"><feGaussianBlur result="blurOut" stdDeviation="2.0"/><feColorMatrix in="blurOut" result="blurOut2" type="matrix" values="0 0 0 0 0 0 0 0 0 0 0 0 0 0 0 0 0 0 .4 0"/><feOffset dx="4.0" dy="4.0" in="blurOut2" result="blurOut3"/><feBlend in="SourceGraphic" in2="blurOut3" mode="normal"/></filter></defs><g><line style="stroke: #A80036; stroke-width: 1.0; stroke-dasharray: 5.0,5.0;" x1="25" x2="25" y1="89.9404" y2="305.0371"/><line style="stroke: #A80036; stroke-width: 1.0; stroke-dasharray: 5.0,5.0;" x1="141" x2="141" y1="89.9404" y2="305.0371"/><line style="stroke: #A80036; stroke-width: 1.0; stroke-dasharray: 5.0,5.0;" x1="274" x2="274" y1="89.9404" y2="305.0371"/><line style="stroke: #A80036; stroke-width: 1.0; stroke-dasharray: 5.0,5.0;" x1="391" x2="391" y1="89.9404" y2="305.0371"/><line style="stroke: #A80036; stroke-width: 1.0; stroke-dasharray: 5.0,5.0;" x1="495" x2="495" y1="89.9404" y2="305.0371"/><text fill="#000000" font-family="sans-serif" font-size="14" lengthAdjust="spacingAndGlyphs" textLength="29" x="8" y="86.8643">User</text><ellipse cx="25.5" cy="13" fill="#FEFECE" filter="url(#f1d7j1u46ia161)" rx="8" ry="8" style="stroke: #A80036; stroke-width: 2.0;"/><path d="M25.5,21 L25.5,48 M12.5,29 L38.5,29 M25.5,48 L12.5,63 M25.5,48 L38.5,63 " fill="#FEFECE" filter="url(#f1d7j1u46ia161)" style="stroke: #A80036; stroke-width: 2.0;"/><text fill="#000000" font-family="sans-serif" font-size="14" lengthAdjust="spacingAndGlyphs" textLength="29" x="8" y="320.9014">User</text><ellipse cx="25.5" cy="333.9775" fill="#FEFECE" filter="url(#f1d7j1u46ia161)" rx="8" ry="8" style="stroke: #A80036; stroke-width: 2.0;"/><path d="M25.5,341.9775 L25.5,368.9775 M12.5,349.9775 L38.5,349.9775 M25.5,368.9775 L12.5,383.9775 M25.5,368.9775 L38.5,383.9775 " fill="#FEFECE" filter="url(#f1d7j1u46ia161)" style="stroke: #A80036; stroke-width: 2.0;"/><rect fill="#FEFECE" filter="url(#f1d7j1u46ia161)" height="33.9404" style="stroke: #A80036; stroke-width: 1.5;" width="125" x="77" y="51"/><text fill="#000000" font-family="sans-serif" font-size="14" lengthAdjust="spacingAndGlyphs" textLength="111" x="84" y="74.8643">MybackupService</text><rect fill="#FEFECE" filter="url(#f1d7j1u46ia161)" height="33.9404" style="stroke: #A80036; stroke-width: 1.5;" width="125" x="77" y="304.0371"/><text fill="#000000" font-family="sans-serif" font-size="14" lengthAdjust="spacingAndGlyphs" textLength="111" x="84" y="327.9014">MybackupService</text><rect fill="#FEFECE" filter="url(#f1d7j1u46ia161)" height="33.9404" style="stroke: #A80036; stroke-width: 1.5;" width="113" x="216" y="51"/><text fill="#000000" font-family="sans-serif" font-size="14" lengthAdjust="spacingAndGlyphs" textLength="99" x="223" y="74.8643">TaskDispatcher</text><rect fill="#FEFECE" filter="url(#f1d7j1u46ia161)" height="33.9404" style="stroke: #A80036; stroke-width: 1.5;" width="113" x="216" y="304.0371"/><text fill="#000000" font-family="sans-serif" font-size="14" lengthAdjust="spacingAndGlyphs" textLength="99" x="223" y="327.9014">TaskDispatcher</text><rect fill="#FEFECE" filter="url(#f1d7j1u46ia161)" height="33.9404" style="stroke: #A80036; stroke-width: 1.5;" width="93" x="343" y="51"/><text fill="#000000" font-family="sans-serif" font-size="14" lengthAdjust="spacingAndGlyphs" textLength="79" x="350" y="74.8643">TaskFactory</text><rect fill="#FEFECE" filter="url(#f1d7j1u46ia161)" height="33.9404" style="stroke: #A80036; stroke-width: 1.5;" width="93" x="343" y="304.0371"/><text fill="#000000" font-family="sans-serif" font-size="14" lengthAdjust="spacingAndGlyphs" textLength="79" x="350" y="327.9014">TaskFactory</text><rect fill="#FEFECE" filter="url(#f1d7j1u46ia161)" height="33.9404" style="stroke: #A80036; stroke-width: 1.5;" width="87" x="450" y="51"/><text fill="#000000" font-family="sans-serif" font-size="14" lengthAdjust="spacingAndGlyphs" textLength="73" x="457" y="74.8643">SimpleTask</text><rect fill="#FEFECE" filter="url(#f1d7j1u46ia161)" height="33.9404" style="stroke: #A80036; stroke-width: 1.5;" width="87" x="450" y="304.0371"/><text fill="#000000" font-family="sans-serif" font-size="14" lengthAdjust="spacingAndGlyphs" textLength="73" x="457" y="327.9014">SimpleTask</text><polygon fill="#A80036" points="129.5,119.9404,139.5,123.9404,129.5,127.9404,133.5,123.9404" style="stroke: #A80036; stroke-width: 1.0;"/><line style="stroke: #A80036; stroke-width: 1.0;" x1="25.5" x2="135.5" y1="123.9404" y2="123.9404"/><text fill="#000000" font-family="sans-serif" font-size="13" lengthAdjust="spacingAndGlyphs" textLength="92" x="32.5" y="119.6001">SimpleBackup()</text><polygon fill="#A80036" points="262.5,152.4565,272.5,156.4565,262.5,160.4565,266.5,156.4565" style="stroke: #A80036; stroke-width: 1.0;"/><line style="stroke: #A80036; stroke-width: 1.0;" x1="141.5" x2="268.5" y1="156.4565" y2="156.4565"/><text fill="#000000" font-family="sans-serif" font-size="13" lengthAdjust="spacingAndGlyphs" textLength="76" x="148.5" y="152.1162">SimpleTask()</text><polygon fill="#A80036" points="379.5,184.9727,389.5,188.9727,379.5,192.9727,383.5,188.9727" style="stroke: #A80036; stroke-width: 1.0;"/><line style="stroke: #A80036; stroke-width: 1.0;" x1="274.5" x2="385.5" y1="188.9727" y2="188.9727"/><text fill="#000000" font-family="sans-serif" font-size="13" lengthAdjust="spacingAndGlyphs" textLength="46" x="281.5" y="184.6323">Create()</text><line style="stroke: #A80036; stroke-width: 1.0;" x1="493.5" x2="483.5" y1="221.4888" y2="217.4888"/><line style="stroke: #A80036; stroke-width: 1.0;" x1="493.5" x2="483.5" y1="221.4888" y2="225.4888"/><line style="stroke: #A80036; stroke-width: 1.0; stroke-dasharray: 2.0,2.0;" x1="391.5" x2="494.5" y1="221.4888" y2="221.4888"/><text fill="#000000" font-family="sans-serif" font-size="13" lengthAdjust="spacingAndGlyphs" textLength="23" x="398.5" y="217.1484">new</text><polygon fill="#A80036" points="285.5,250.0049,275.5,254.0049,285.5,258.0049,281.5,254.0049" style="stroke: #A80036; stroke-width: 1.0;"/><line style="stroke: #A80036; stroke-width: 1.0;" x1="279.5" x2="390.5" y1="254.0049" y2="254.0049"/><text fill="#000000" font-family="sans-serif" font-size="13" lengthAdjust="spacingAndGlyphs" textLength="28" x="291.5" y="249.6646">Task</text><polygon fill="#A80036" points="483.5,282.521,493.5,286.521,483.5,290.521,487.5,286.521" style="stroke: #A80036; stroke-width: 1.0;"/><line style="stroke: #A80036; stroke-width: 1.0;" x1="274.5" x2="489.5" y1="286.521" y2="286.521"/><text fill="#000000" font-family="sans-serif" font-size="13" lengthAdjust="spacingAndGlyphs" textLength="56" x="281.5" y="282.1807">Execute()</text><!--
@startuml SimpleBackup

actor User 
User -> MybackupService : SimpleBackup()
MybackupService -> TaskDispatcher : SimpleTask()
TaskDispatcher -> TaskFactory : Create()
TaskFactory - ->> SimpleTask : new
TaskDispatcher <- TaskFactory : Task
TaskDispatcher -> SimpleTask : Execute()

@enduml

PlantUML version 1.2017.15(Tue Jul 04 00:45:34 CST 2017)
(GPL source distribution)
Java Runtime: Java(TM) SE Runtime Environment
JVM: Java HotSpot(TM) 64-Bit Server VM
Java Version: 9.0.1+11
Operating System: Windows 10
OS Version: 10.0
Default Encoding: MS950
Language: zh
Country: TW
--></g></svg>