<?xml version="1.0" encoding="UTF-8" standalone="no"?><svg xmlns="http://www.w3.org/2000/svg" xmlns:xlink="http://www.w3.org/1999/xlink" contentScriptType="application/ecmascript" contentStyleType="text/css" height="533px" preserveAspectRatio="none" style="width:839px;height:533px;" version="1.1" viewBox="0 0 839 533" width="839px" zoomAndPan="magnify"><defs><filter height="300%" id="f1xpkbu92qwsca" width="300%" x="-1" y="-1"><feGaussianBlur result="blurOut" stdDeviation="2.0"/><feColorMatrix in="blurOut" result="blurOut2" type="matrix" values="0 0 0 0 0 0 0 0 0 0 0 0 0 0 0 0 0 0 .4 0"/><feOffset dx="4.0" dy="4.0" in="blurOut2" result="blurOut3"/><feBlend in="SourceGraphic" in2="blurOut3" mode="normal"/></filter></defs><g><!--class MyBackupService--><rect fill="#FEFECE" filter="url(#f1xpkbu92qwsca)" height="173.3398" id="MyBackupService" style="stroke: #A80036; stroke-width: 1.5;" width="134" x="6" y="31.5"/><ellipse cx="24.15" cy="47.5" fill="#ADD1B2" rx="11" ry="11" style="stroke: #A80036; stroke-width: 1.0;"/><path d="M28.275,51.4531 Q27.9156,52.0781 27.0719,52.7188 Q25.6656,53.7344 22.9313,53.7344 Q20.7438,53.7344 19.275,52.2656 Q17.5719,50.5625 17.5719,47.375 Q17.5719,44.4375 19.2594,42.6406 Q20.8063,41.0156 23.025,41.0156 Q24.9,41.0156 25.8844,41.3125 Q26.8688,41.6094 26.8688,41.6094 Q26.8688,41.6094 26.8688,41.0469 L27.8844,40.9531 L28.0406,45.0156 L26.7125,45.1406 Q25.9,41.5469 23.1656,41.5469 Q23.1656,41.5469 22.5719,41.8281 Q21.6656,42.1719 21.15,42.7188 Q19.775,44.2656 19.7594,47.4063 Q19.7438,50.1875 21.275,51.75 Q22.5719,53.0781 23.4,53.0781 Q25.4313,53.0781 27.6188,50.5156 L28.275,51.4531 Z "/><text fill="#000000" font-family="sans-serif" font-size="12" lengthAdjust="spacingAndGlyphs" textLength="95" x="38.85" y="53.4092">MyBackupService</text><line style="stroke: #A80036; stroke-width: 1.5;" x1="7" x2="139" y1="63.5" y2="63.5"/><rect fill="none" height="6" style="stroke: #C82930; stroke-width: 1.0;" width="6" x="14" y="73.8337"/><text fill="#000000" font-family="sans-serif" font-size="11" lengthAdjust="spacingAndGlyphs" textLength="48" x="26" y="80.7505">managers</text><rect fill="none" height="6" style="stroke: #C82930; stroke-width: 1.0;" width="6" x="14" y="89.5012"/><text fill="#000000" font-family="sans-serif" font-size="11" lengthAdjust="spacingAndGlyphs" textLength="72" x="26" y="96.418">taskDispatcher</text><line style="stroke: #A80036; stroke-width: 1.5;" x1="7" x2="139" y1="102.835" y2="102.835"/><ellipse cx="17" cy="116.1687" fill="#84BE84" rx="3" ry="3" style="stroke: #038048; stroke-width: 1.0;"/><text fill="#000000" font-family="sans-serif" font-size="11" lengthAdjust="spacingAndGlyphs" textLength="95" x="26" y="120.0854">MyBackupService()</text><ellipse cx="17" cy="131.8362" fill="#84BE84" rx="3" ry="3" style="stroke: #038048; stroke-width: 1.0;"/><text fill="#000000" font-family="sans-serif" font-size="11" lengthAdjust="spacingAndGlyphs" textLength="75" x="26" y="135.7529">SimpleBackup()</text><ellipse cx="17" cy="147.5037" fill="#84BE84" rx="3" ry="3" style="stroke: #038048; stroke-width: 1.0;"/><text fill="#000000" font-family="sans-serif" font-size="11" lengthAdjust="spacingAndGlyphs" textLength="95" x="26" y="151.4204">ScheduledBackup()</text><rect fill="#F24D5C" height="6" style="stroke: #C82930; stroke-width: 1.0;" width="6" x="14" y="160.1711"/><text fill="#000000" font-family="sans-serif" font-size="11" lengthAdjust="spacingAndGlyphs" textLength="21" x="26" y="167.0879">Init()</text><rect fill="#F24D5C" height="6" style="stroke: #C82930; stroke-width: 1.0;" width="6" x="14" y="175.8386"/><text fill="#000000" font-family="sans-serif" font-size="11" lengthAdjust="spacingAndGlyphs" textLength="108" x="26" y="182.7554">ProcessJsonConfigs()</text><rect fill="#F24D5C" height="6" style="stroke: #C82930; stroke-width: 1.0;" width="6" x="14" y="191.5061"/><text fill="#000000" font-family="sans-serif" font-size="11" lengthAdjust="spacingAndGlyphs" textLength="50" x="26" y="198.4229">FindFiles()</text><!--class TaskDispatcher--><rect fill="#FEFECE" filter="url(#f1xpkbu92qwsca)" height="110.6699" id="TaskDispatcher" style="stroke: #A80036; stroke-width: 1.5;" width="119" x="175.5" y="62.5"/><ellipse cx="190.5" cy="78.5" fill="#ADD1B2" rx="11" ry="11" style="stroke: #A80036; stroke-width: 1.0;"/><path d="M194.625,82.4531 Q194.2656,83.0781 193.4219,83.7188 Q192.0156,84.7344 189.2813,84.7344 Q187.0938,84.7344 185.625,83.2656 Q183.9219,81.5625 183.9219,78.375 Q183.9219,75.4375 185.6094,73.6406 Q187.1563,72.0156 189.375,72.0156 Q191.25,72.0156 192.2344,72.3125 Q193.2188,72.6094 193.2188,72.6094 Q193.2188,72.6094 193.2188,72.0469 L194.2344,71.9531 L194.3906,76.0156 L193.0625,76.1406 Q192.25,72.5469 189.5156,72.5469 Q189.5156,72.5469 188.9219,72.8281 Q188.0156,73.1719 187.5,73.7188 Q186.125,75.2656 186.1094,78.4063 Q186.0938,81.1875 187.625,82.75 Q188.9219,84.0781 189.75,84.0781 Q191.7813,84.0781 193.9688,81.5156 L194.625,82.4531 Z "/><text fill="#000000" font-family="sans-serif" font-size="12" lengthAdjust="spacingAndGlyphs" textLength="87" x="204.5" y="84.4092">TaskDispatcher</text><line style="stroke: #A80036; stroke-width: 1.5;" x1="176.5" x2="293.5" y1="94.5" y2="94.5"/><rect fill="none" height="6" style="stroke: #C82930; stroke-width: 1.0;" width="6" x="183.5" y="104.8337"/><text fill="#000000" font-family="sans-serif" font-size="11" lengthAdjust="spacingAndGlyphs" textLength="20" x="195.5" y="111.7505">task</text><line style="stroke: #A80036; stroke-width: 1.5;" x1="176.5" x2="293.5" y1="118.1675" y2="118.1675"/><ellipse cx="186.5" cy="131.5012" fill="#84BE84" rx="3" ry="3" style="stroke: #038048; stroke-width: 1.0;"/><text fill="#000000" font-family="sans-serif" font-size="11" lengthAdjust="spacingAndGlyphs" textLength="62" x="195.5" y="135.418">SimpleTask()</text><ellipse cx="186.5" cy="147.1687" fill="#84BE84" rx="3" ry="3" style="stroke: #038048; stroke-width: 1.0;"/><text fill="#000000" font-family="sans-serif" font-size="11" lengthAdjust="spacingAndGlyphs" textLength="82" x="195.5" y="151.0854">ScheduledTask()</text><rect fill="#F24D5C" height="6" style="stroke: #C82930; stroke-width: 1.0;" width="6" x="183.5" y="159.8362"/><text fill="#000000" font-family="sans-serif" font-size="11" lengthAdjust="spacingAndGlyphs" textLength="70" x="195.5" y="166.7529">ExecuteTask()</text><!--class TaskFactory--><rect fill="#FEFECE" filter="url(#f1xpkbu92qwsca)" height="63.6675" id="TaskFactory" style="stroke: #A80036; stroke-width: 1.5;" width="98" x="330" y="86"/><ellipse cx="345" cy="102" fill="#ADD1B2" rx="11" ry="11" style="stroke: #A80036; stroke-width: 1.0;"/><path d="M349.125,105.9531 Q348.7656,106.5781 347.9219,107.2188 Q346.5156,108.2344 343.7813,108.2344 Q341.5938,108.2344 340.125,106.7656 Q338.4219,105.0625 338.4219,101.875 Q338.4219,98.9375 340.1094,97.1406 Q341.6563,95.5156 343.875,95.5156 Q345.75,95.5156 346.7344,95.8125 Q347.7188,96.1094 347.7188,96.1094 Q347.7188,96.1094 347.7188,95.5469 L348.7344,95.4531 L348.8906,99.5156 L347.5625,99.6406 Q346.75,96.0469 344.0156,96.0469 Q344.0156,96.0469 343.4219,96.3281 Q342.5156,96.6719 342,97.2188 Q340.625,98.7656 340.6094,101.9063 Q340.5938,104.6875 342.125,106.25 Q343.4219,107.5781 344.25,107.5781 Q346.2813,107.5781 348.4688,105.0156 L349.125,105.9531 Z "/><text fill="#000000" font-family="sans-serif" font-size="12" lengthAdjust="spacingAndGlyphs" textLength="66" x="359" y="107.9092">TaskFactory</text><line style="stroke: #A80036; stroke-width: 1.5;" x1="331" x2="427" y1="118" y2="118"/><line style="stroke: #A80036; stroke-width: 1.5;" x1="331" x2="427" y1="126" y2="126"/><ellipse cx="341" cy="139.3337" fill="#84BE84" rx="3" ry="3" style="stroke: #038048; stroke-width: 1.0;"/><text fill="#000000" font-family="sans-serif" font-size="11" lengthAdjust="spacingAndGlyphs" text-decoration="underline" textLength="40" x="350" y="143.2505">Create()</text><line style="stroke: #000000; stroke-width: 1.0;" x1="350" x2="390" y1="145.2505" y2="145.2505"/><!--class Task--><rect fill="#FEFECE" filter="url(#f1xpkbu92qwsca)" height="63.6675" id="Task" style="stroke: #A80036; stroke-width: 1.5;" width="73" x="463.5" y="86"/><ellipse cx="484.8" cy="102" fill="#B4A7E5" rx="11" ry="11" style="stroke: #A80036; stroke-width: 1.0;"/><path d="M487.8,108.0156 L482.05,108.0156 L482.05,107.6875 Q483.1438,107.625 483.5344,107.2656 Q483.925,106.9063 483.925,105.9063 L483.925,97.9375 Q483.925,96.9063 483.5031,96.5313 Q483.1438,96.2031 482.05,96.1406 L482.05,95.8125 L487.8,95.8125 L487.8,96.1406 Q486.7844,96.1875 486.4094,96.4688 Q485.9094,96.875 485.9094,97.9375 L485.9094,105.9063 Q485.9094,106.9531 486.4094,107.3281 Q486.7844,107.6406 487.8,107.6875 L487.8,108.0156 Z "/><text fill="#000000" font-family="sans-serif" font-size="12" font-style="italic" lengthAdjust="spacingAndGlyphs" textLength="27" x="500.2" y="107.9092">Task</text><line style="stroke: #A80036; stroke-width: 1.5;" x1="464.5" x2="535.5" y1="118" y2="118"/><line style="stroke: #A80036; stroke-width: 1.5;" x1="464.5" x2="535.5" y1="126" y2="126"/><ellipse cx="474.5" cy="139.3337" fill="#84BE84" rx="3" ry="3" style="stroke: #038048; stroke-width: 1.0;"/><text fill="#000000" font-family="sans-serif" font-size="11" lengthAdjust="spacingAndGlyphs" textLength="47" x="483.5" y="143.2505">Execute()</text><!--class AbstractTask--><rect fill="#FEFECE" filter="url(#f1xpkbu92qwsca)" height="110.6699" id="AbstractTask" style="stroke: #A80036; stroke-width: 1.5;" width="139" x="430.5" y="288"/><ellipse cx="461.25" cy="304" fill="#A9DCDF" rx="11" ry="11" style="stroke: #A80036; stroke-width: 1.0;"/><path d="M467.4844,308.7656 L462.5625,308.7656 L462.5625,308.4375 Q463.2031,308.3906 463.4688,308.2969 Q463.8906,308.1094 463.8906,307.5938 Q463.8906,307.1875 463.5938,306.4063 L463,304.7656 L459.3594,304.7656 L458.5313,306.875 Q458.3906,307.2031 458.3906,307.5938 Q458.3906,308.125 458.7969,308.2969 Q458.9688,308.3906 459.4844,308.4375 L459.4844,308.7656 L455.4531,308.7656 L455.4531,308.4375 Q455.6719,308.3906 455.875,308.3438 Q456.0781,308.2969 456.2656,308.0625 Q456.7344,307.4688 457.4688,305.4375 L460.8281,296.3281 L461.8906,296.3281 L465.8281,306.7969 Q466.1875,307.7969 466.625,308.1563 Q466.875,308.3438 467.4844,308.4375 L467.4844,308.7656 Z M462.7813,304.1406 L461,298.9063 L459.5,304.1406 L462.7813,304.1406 Z "/><text fill="#000000" font-family="sans-serif" font-size="12" font-style="italic" lengthAdjust="spacingAndGlyphs" textLength="72" x="478.75" y="309.9092">AbstractTask</text><line style="stroke: #A80036; stroke-width: 1.5;" x1="431.5" x2="568.5" y1="320" y2="320"/><polygon fill="none" points="441.5,328.3337,445.5,332.3337,441.5,336.3337,437.5,332.3337" style="stroke: #B38D22; stroke-width: 1.0;"/><text fill="#000000" font-family="sans-serif" font-size="11" lengthAdjust="spacingAndGlyphs" textLength="44" x="450.5" y="337.2505">fileFinder</text><line style="stroke: #A80036; stroke-width: 1.5;" x1="431.5" x2="568.5" y1="343.6675" y2="343.6675"/><ellipse cx="441.5" cy="357.0012" fill="#84BE84" rx="3" ry="3" style="stroke: #038048; stroke-width: 1.0;"/><text fill="#000000" font-family="sans-serif" font-size="11" lengthAdjust="spacingAndGlyphs" textLength="47" x="450.5" y="360.918">Execute()</text><polygon fill="#FFFF44" points="441.5,367.6687,445.5,371.6687,441.5,375.6687,437.5,371.6687" style="stroke: #B38D22; stroke-width: 1.0;"/><text fill="#000000" font-family="sans-serif" font-size="11" lengthAdjust="spacingAndGlyphs" textLength="113" x="450.5" y="376.5854">BroadcastToHandlers()</text><polygon fill="#FFFF44" points="441.5,383.3362,445.5,387.3362,441.5,391.3362,437.5,387.3362" style="stroke: #B38D22; stroke-width: 1.0;"/><text fill="#000000" font-family="sans-serif" font-size="11" lengthAdjust="spacingAndGlyphs" textLength="71" x="450.5" y="392.2529">FindHandlers()</text><!--class SimpleTask--><rect fill="#FEFECE" filter="url(#f1xpkbu92qwsca)" height="63.6675" id="SimpleTask" style="stroke: #A80036; stroke-width: 1.5;" width="98" x="380" y="459"/><ellipse cx="395" cy="475" fill="#ADD1B2" rx="11" ry="11" style="stroke: #A80036; stroke-width: 1.0;"/><path d="M399.125,478.9531 Q398.7656,479.5781 397.9219,480.2188 Q396.5156,481.2344 393.7813,481.2344 Q391.5938,481.2344 390.125,479.7656 Q388.4219,478.0625 388.4219,474.875 Q388.4219,471.9375 390.1094,470.1406 Q391.6563,468.5156 393.875,468.5156 Q395.75,468.5156 396.7344,468.8125 Q397.7188,469.1094 397.7188,469.1094 Q397.7188,469.1094 397.7188,468.5469 L398.7344,468.4531 L398.8906,472.5156 L397.5625,472.6406 Q396.75,469.0469 394.0156,469.0469 Q394.0156,469.0469 393.4219,469.3281 Q392.5156,469.6719 392,470.2188 Q390.625,471.7656 390.6094,474.9063 Q390.5938,477.6875 392.125,479.25 Q393.4219,480.5781 394.25,480.5781 Q396.2813,480.5781 398.4688,478.0156 L399.125,478.9531 Z "/><text fill="#000000" font-family="sans-serif" font-size="12" lengthAdjust="spacingAndGlyphs" textLength="66" x="409" y="480.9092">SimpleTask</text><line style="stroke: #A80036; stroke-width: 1.5;" x1="381" x2="477" y1="491" y2="491"/><line style="stroke: #A80036; stroke-width: 1.5;" x1="381" x2="477" y1="499" y2="499"/><ellipse cx="391" cy="512.3337" fill="#84BE84" rx="3" ry="3" style="stroke: #038048; stroke-width: 1.0;"/><text fill="#000000" font-family="sans-serif" font-size="11" lengthAdjust="spacingAndGlyphs" textLength="47" x="400" y="516.2505">Execute()</text><!--class ScheduledTask--><rect fill="#FEFECE" filter="url(#f1xpkbu92qwsca)" height="63.6675" id="ScheduledTask" style="stroke: #A80036; stroke-width: 1.5;" width="118" x="513" y="459"/><ellipse cx="528" cy="475" fill="#ADD1B2" rx="11" ry="11" style="stroke: #A80036; stroke-width: 1.0;"/><path d="M532.125,478.9531 Q531.7656,479.5781 530.9219,480.2188 Q529.5156,481.2344 526.7813,481.2344 Q524.5938,481.2344 523.125,479.7656 Q521.4219,478.0625 521.4219,474.875 Q521.4219,471.9375 523.1094,470.1406 Q524.6563,468.5156 526.875,468.5156 Q528.75,468.5156 529.7344,468.8125 Q530.7188,469.1094 530.7188,469.1094 Q530.7188,469.1094 530.7188,468.5469 L531.7344,468.4531 L531.8906,472.5156 L530.5625,472.6406 Q529.75,469.0469 527.0156,469.0469 Q527.0156,469.0469 526.4219,469.3281 Q525.5156,469.6719 525,470.2188 Q523.625,471.7656 523.6094,474.9063 Q523.5938,477.6875 525.125,479.25 Q526.4219,480.5781 527.25,480.5781 Q529.2813,480.5781 531.4688,478.0156 L532.125,478.9531 Z "/><text fill="#000000" font-family="sans-serif" font-size="12" lengthAdjust="spacingAndGlyphs" textLength="86" x="542" y="480.9092">ScheduledTask</text><line style="stroke: #A80036; stroke-width: 1.5;" x1="514" x2="630" y1="491" y2="491"/><line style="stroke: #A80036; stroke-width: 1.5;" x1="514" x2="630" y1="499" y2="499"/><ellipse cx="524" cy="512.3337" fill="#84BE84" rx="3" ry="3" style="stroke: #038048; stroke-width: 1.0;"/><text fill="#000000" font-family="sans-serif" font-size="11" lengthAdjust="spacingAndGlyphs" textLength="47" x="533" y="516.2505">Execute()</text><!--class Candidate--><rect fill="#FEFECE" filter="url(#f1xpkbu92qwsca)" height="220.3423" id="Candidate" style="stroke: #A80036; stroke-width: 1.5;" width="93" x="735.5" y="8"/><ellipse cx="752.3" cy="24" fill="#ADD1B2" rx="11" ry="11" style="stroke: #A80036; stroke-width: 1.0;"/><path d="M756.425,27.9531 Q756.0656,28.5781 755.2219,29.2188 Q753.8156,30.2344 751.0813,30.2344 Q748.8938,30.2344 747.425,28.7656 Q745.7219,27.0625 745.7219,23.875 Q745.7219,20.9375 747.4094,19.1406 Q748.9563,17.5156 751.175,17.5156 Q753.05,17.5156 754.0344,17.8125 Q755.0188,18.1094 755.0188,18.1094 Q755.0188,18.1094 755.0188,17.5469 L756.0344,17.4531 L756.1906,21.5156 L754.8625,21.6406 Q754.05,18.0469 751.3156,18.0469 Q751.3156,18.0469 750.7219,18.3281 Q749.8156,18.6719 749.3,19.2188 Q747.925,20.7656 747.9094,23.9063 Q747.8938,26.6875 749.425,28.25 Q750.7219,29.5781 751.55,29.5781 Q753.5813,29.5781 755.7688,27.0156 L756.425,27.9531 Z "/><text fill="#000000" font-family="sans-serif" font-size="12" lengthAdjust="spacingAndGlyphs" textLength="57" x="766.7" y="29.9092">Candidate</text><line style="stroke: #A80036; stroke-width: 1.5;" x1="736.5" x2="827.5" y1="40" y2="40"/><rect fill="none" height="6" style="stroke: #C82930; stroke-width: 1.0;" width="6" x="743.5" y="50.3337"/><text fill="#000000" font-family="sans-serif" font-size="11" lengthAdjust="spacingAndGlyphs" textLength="30" x="755.5" y="57.2505">config</text><rect fill="none" height="6" style="stroke: #C82930; stroke-width: 1.0;" width="6" x="743.5" y="66.0012"/><text fill="#000000" font-family="sans-serif" font-size="11" lengthAdjust="spacingAndGlyphs" textLength="58" x="755.5" y="72.918">fileDateTime</text><rect fill="none" height="6" style="stroke: #C82930; stroke-width: 1.0;" width="6" x="743.5" y="81.6687"/><text fill="#000000" font-family="sans-serif" font-size="11" lengthAdjust="spacingAndGlyphs" textLength="26" x="755.5" y="88.5854">name</text><rect fill="none" height="6" style="stroke: #C82930; stroke-width: 1.0;" width="6" x="743.5" y="97.3362"/><text fill="#000000" font-family="sans-serif" font-size="11" lengthAdjust="spacingAndGlyphs" textLength="67" x="755.5" y="104.2529">processName</text><rect fill="none" height="6" style="stroke: #C82930; stroke-width: 1.0;" width="6" x="743.5" y="113.0037"/><text fill="#000000" font-family="sans-serif" font-size="11" lengthAdjust="spacingAndGlyphs" textLength="20" x="755.5" y="119.9204">size</text><ellipse cx="746.5" cy="131.6711" fill="none" rx="3" ry="3" style="stroke: #038048; stroke-width: 1.0;"/><text fill="#000000" font-family="sans-serif" font-size="11" lengthAdjust="spacingAndGlyphs" textLength="31" x="755.5" y="135.5879">Config</text><ellipse cx="746.5" cy="147.3386" fill="none" rx="3" ry="3" style="stroke: #038048; stroke-width: 1.0;"/><text fill="#000000" font-family="sans-serif" font-size="11" lengthAdjust="spacingAndGlyphs" textLength="60" x="755.5" y="151.2554">FileDateTime</text><ellipse cx="746.5" cy="163.0061" fill="none" rx="3" ry="3" style="stroke: #038048; stroke-width: 1.0;"/><text fill="#000000" font-family="sans-serif" font-size="11" lengthAdjust="spacingAndGlyphs" textLength="27" x="755.5" y="166.9229">Name</text><ellipse cx="746.5" cy="178.6736" fill="none" rx="3" ry="3" style="stroke: #038048; stroke-width: 1.0;"/><text fill="#000000" font-family="sans-serif" font-size="11" lengthAdjust="spacingAndGlyphs" textLength="67" x="755.5" y="182.5903">ProcessName</text><ellipse cx="746.5" cy="194.3411" fill="none" rx="3" ry="3" style="stroke: #038048; stroke-width: 1.0;"/><text fill="#000000" font-family="sans-serif" font-size="11" lengthAdjust="spacingAndGlyphs" textLength="21" x="755.5" y="198.2578">Size</text><line style="stroke: #A80036; stroke-width: 1.5;" x1="736.5" x2="827.5" y1="204.6748" y2="204.6748"/><polygon fill="#4177AF" points="746.5,214.0085,742.5,220.0085,750.5,220.0085" style="stroke: #1963A0; stroke-width: 1.0;"/><text fill="#000000" font-family="sans-serif" font-size="11" lengthAdjust="spacingAndGlyphs" textLength="56" x="755.5" y="221.9253">Candidate()</text><!--class CandidateFactory--><rect fill="#FEFECE" filter="url(#f1xpkbu92qwsca)" height="63.6675" id="CandidateFactory" style="stroke: #A80036; stroke-width: 1.5;" width="128" x="572" y="86"/><ellipse cx="587" cy="102" fill="#ADD1B2" rx="11" ry="11" style="stroke: #A80036; stroke-width: 1.0;"/><path d="M591.125,105.9531 Q590.7656,106.5781 589.9219,107.2188 Q588.5156,108.2344 585.7813,108.2344 Q583.5938,108.2344 582.125,106.7656 Q580.4219,105.0625 580.4219,101.875 Q580.4219,98.9375 582.1094,97.1406 Q583.6563,95.5156 585.875,95.5156 Q587.75,95.5156 588.7344,95.8125 Q589.7188,96.1094 589.7188,96.1094 Q589.7188,96.1094 589.7188,95.5469 L590.7344,95.4531 L590.8906,99.5156 L589.5625,99.6406 Q588.75,96.0469 586.0156,96.0469 Q586.0156,96.0469 585.4219,96.3281 Q584.5156,96.6719 584,97.2188 Q582.625,98.7656 582.6094,101.9063 Q582.5938,104.6875 584.125,106.25 Q585.4219,107.5781 586.25,107.5781 Q588.2813,107.5781 590.4688,105.0156 L591.125,105.9531 Z "/><text fill="#000000" font-family="sans-serif" font-size="12" lengthAdjust="spacingAndGlyphs" textLength="96" x="601" y="107.9092">CandidateFactory</text><line style="stroke: #A80036; stroke-width: 1.5;" x1="573" x2="699" y1="118" y2="118"/><line style="stroke: #A80036; stroke-width: 1.5;" x1="573" x2="699" y1="126" y2="126"/><ellipse cx="583" cy="139.3337" fill="#84BE84" rx="3" ry="3" style="stroke: #038048; stroke-width: 1.0;"/><text fill="#000000" font-family="sans-serif" font-size="11" lengthAdjust="spacingAndGlyphs" textLength="40" x="592" y="143.2505">Create()</text><!--link MyBackupService to TaskDispatcher--><path d="M140.078,118 C150.077,118 160.076,118 170.074,118 " fill="none" id="MyBackupService-TaskDispatcher" style="stroke: #A80036; stroke-width: 1.0;"/><polygon fill="#A80036" points="175.303,118,166.303,114,170.303,118,166.303,122,175.303,118" style="stroke: #A80036; stroke-width: 1.0;"/><!--link TaskDispatcher to TaskFactory--><path d="M294.625,118 C304.635,118 314.646,118 324.656,118 " fill="none" id="TaskDispatcher-TaskFactory" style="stroke: #A80036; stroke-width: 1.0;"/><polygon fill="#A80036" points="329.891,118,320.891,114,324.891,118,320.891,122,329.891,118" style="stroke: #A80036; stroke-width: 1.0;"/><!--link TaskFactory to Task--><path d="M428.156,118 C438.114,118 448.071,118 458.029,118 " fill="none" id="TaskFactory-Task" style="stroke: #A80036; stroke-width: 1.0;"/><polygon fill="#A80036" points="463.236,118,454.236,114,458.236,118,454.236,122,463.236,118" style="stroke: #A80036; stroke-width: 1.0;"/><!--link Task to AbstractTask--><path d="M500,170.248 C500,205.323 500,251.782 500,287.611 " fill="none" id="Task-AbstractTask" style="stroke: #A80036; stroke-width: 1.0; stroke-dasharray: 7.0,7.0;"/><polygon fill="none" points="493,170.077,500,150.077,507,170.077,493,170.077" style="stroke: #A80036; stroke-width: 1.0;"/><!--link AbstractTask to SimpleTask--><path d="M464.429,417.396 C457.311,431.982 450.197,446.5602 444.232,458.7852 " fill="none" id="AbstractTask-SimpleTask" style="stroke: #A80036; stroke-width: 1.0;"/><polygon fill="none" points="458.298,413.997,473.36,399.093,470.88,420.137,458.298,413.997" style="stroke: #A80036; stroke-width: 1.0;"/><!--link AbstractTask to ScheduledTask--><path d="M536.072,417.396 C543.29,431.982 550.504,446.5602 556.554,458.7852 " fill="none" id="AbstractTask-ScheduledTask" style="stroke: #A80036; stroke-width: 1.0;"/><polygon fill="none" points="529.611,420.123,527.015,399.093,542.159,413.914,529.611,420.123" style="stroke: #A80036; stroke-width: 1.0;"/><!--link CandidateFactory to Candidate--><path d="M700.16,118 C710.142,118 720.124,118 730.106,118 " fill="none" id="CandidateFactory-Candidate" style="stroke: #A80036; stroke-width: 1.0;"/><polygon fill="#A80036" points="735.326,118,726.326,114,730.326,118,726.326,122,735.326,118" style="stroke: #A80036; stroke-width: 1.0;"/><!--
@startuml Homework5ClassDiagram

class MyBackupService {
    -managers
    -taskDispatcher
    +MyBackupService()
    +SimpleBackup()
    +ScheduledBackup()
    -Init()
    -ProcessJsonConfigs()
    -FindFiles()
}

class TaskDispatcher{
    -task
    +SimpleTask()
    +ScheduledTask()
    -ExecuteTask()
}

class TaskFactory{
    {static} +Create()
}

interface Task {
    +Execute()
}

abstract class AbstractTask {
    #fileFinder
    +Execute()
    #BroadcastToHandlers()
    #FindHandlers()
}

class SimpleTask {
    +Execute()
}

class ScheduledTask {
    +Execute()
}

class Candidate{
    -config
    -fileDateTime
    -name
    -processName
    -size
    +Config
    +FileDateTime
    +Name
    +ProcessName
    +Size
    ~Candidate()
}

class CandidateFactory{
    +Create()
}

MyBackupService -> TaskDispatcher
TaskDispatcher -> TaskFactory
TaskFactory -> Task
Task <|.. AbstractTask
AbstractTask <|- - SimpleTask
AbstractTask <|- - ScheduledTask

CandidateFactory -> Candidate
@enduml

PlantUML version 1.2017.15(Tue Jul 04 00:45:34 CST 2017)
(GPL source distribution)
Java Runtime: Java(TM) SE Runtime Environment
JVM: Java HotSpot(TM) 64-Bit Server VM
Java Version: 9.0.1+11
Operating System: Windows 10
OS Version: 10.0
Default Encoding: MS950
Language: zh
Country: TW
--></g></svg>